<svg viewBox="0 0 500 500" xmlns="http://www.w3.org/2000/svg" xmlns:bx="https://boxy-svg.com">
  <defs>
    <bx:grid x="0" y="0" width="124.908" height="124.908"></bx:grid>
  </defs>
  <path d="M 507.807 249.73 C 507.844 387.653 392.367 499.5 249.883 499.547 C 107.399 499.594 -8.138 387.824 -8.175 249.9 C -8.212 111.978 107.265 0.133 249.749 0.085 C 392.233 0.038 507.77 111.807 507.807 249.73 Z" style="transform-origin: 249.816px 225.137px;"></path>
  <path stroke-width="0" d="M 89.206 276.312 C 94.879 275.732 109.606 276.826 113.917 279.437 C 116.462 280.979 115.17 284.32 117.449 285.703 C 120.764 287.717 128.062 287.789 134.393 287.265 C 141.902 286.642 153.407 280.596 159.808 280.988 C 164.409 281.27 168.345 284.056 170.398 285.686 C 171.682 286.705 171.367 287.503 172.519 288.817 C 174.395 290.967 179.832 295.085 181.698 297.433 C 182.913 298.96 182.604 299.82 183.816 301.35 C 185.681 303.695 190.796 307.359 192.997 309.963 C 194.672 311.947 194.927 313.577 196.528 315.447 C 198.486 317.73 201.66 319.379 204.295 322.493 C 207.525 326.307 208.109 333.977 214.184 337.374 C 223.366 342.508 252.61 334.822 260.781 342.06 C 267.176 347.722 268.933 358.292 266.436 369.477 C 262.647 386.446 240.189 422.712 224.799 434.51 C 212.574 443.883 194.118 445.664 185.266 443.926 C 179.296 442.75 177.797 438.641 173.262 433.746 C 166.985 426.965 157.066 411.229 151.369 404.766 C 147.612 400.507 144.356 399.024 142.189 396.152 C 140.414 393.803 141.541 391.845 138.656 389.103 C 132.717 383.459 110.221 375.434 99.116 367.181 C 89.234 359.837 78.014 346.623 74.398 342.904 C 73.014 341.48 73.359 341.841 72.28 340.554 C 70.171 338.04 63.442 332.372 61.686 327.241 C 59.952 322.171 60.514 314.777 61.681 310.007 C 62.692 305.884 65.399 301.875 67.327 299.821 C 68.714 298.341 69.976 299.222 71.563 297.469 C 74.326 294.41 77.963 282.806 81.441 279.448 C 83.934 277.042 85.557 276.686 89.206 276.312 Z M 200.081 396.916 C 199.793 397.059 199.772 398.186 200.081 398.483 C 200.487 398.876 202.863 398.726 202.904 398.482 C 202.948 398.226 200.476 396.717 200.081 396.916 Z" style="stroke-width: 2px; fill: rgb(255, 255, 255); transform-origin: 164.061px 324.735px;"></path>
  <path style="fill: rgb(255, 147, 253); transform-origin: 143.637px 221.052px;" d="M 39.461 453.034 C 57.838 348.552 57.116 242.048 37.298 133.518 C 25.795 70.526 50.33 37.259 110.903 33.719 C 213.366 27.727 260.283 61.518 251.654 135.089 C 243.451 205.008 196.557 258.003 110.971 294.073 C 49.046 320.171 95.968 373.134 251.738 452.963 C 110.22 453.011 39.461 453.034 39.461 453.034 Z" transform="matrix(0.99925, -0.03872, 0.03872, 0.99925, 0.000001, 0)"></path>
  <path style="fill: rgb(255, 147, 253); transform-origin: 245.479px 226.238px;" d="M 50.055 253.008 C 43.527 188.914 43.888 49.245 48.012 89.726 C 288.117 38.153 416.179 43.809 432.198 106.697 C 458.771 211.013 364.649 240.056 149.831 193.827 C 30.378 168.12 128.517 247.938 444.25 433.283 C 183.005 328.329 51.607 268.238 50.055 253.008 Z"></path>
  <path style="fill: rgb(255, 255, 255); stroke-width: 0.85679; vector-effect: non-scaling-stroke;" d="M 121.64 117.703 L 398.885 124.788 C 443.847 140.546 443.852 156.43 398.897 172.441 C 383.245 178.015 276.148 164.503 121.64 117.703 Z"></path>
  <path style="fill: rgb(255, 255, 255); stroke-width: 0.85679; vector-effect: non-scaling-stroke; transform-origin: 237.841px 126.864px;" d="M 398.885 125.444 L 114.374 115.38 C 64.261 131.168 64.265 147.052 114.387 163.032 C 131.839 168.593 226.676 172.352 398.885 125.444 Z"></path>
  <path style="transform-origin: 159.63px 132.576px;" d="M 127.735 147.97 C 133.168 126.646 145.13 116.585 163.621 117.785 C 175.85 118.58 191.52 131.536 191.523 144.327 C 191.527 158.521 191.53 169.891 170.164 174.509 C 153.505 178.109 141.17 180.579 127.735 147.97 Z"></path>
  <text style="fill: rgb(255, 255, 255); font-family: Arial, sans-serif; font-size: 29.9017px; white-space: pre; transform-box: fill-box; transform-origin: 50% 50%;" transform="matrix(1.308416, 0.771401, -0.588633, 1.229295, 68.537621, -22.48419)" x="148.556" y="321.091">ICHARD</text>
  <path style="transform-origin: 338.625px 132.523px;" d="M 306.731 147.912 C 312.166 126.587 324.126 116.526 342.617 117.726 C 354.847 118.52 370.516 131.476 370.519 144.269 C 370.523 158.462 370.526 169.831 349.16 174.451 C 332.501 178.051 320.166 180.52 306.731 147.912 Z"></path>
  <polyline style="fill: rgb(216, 216, 216); stroke: rgb(0, 0, 0); transform-origin: 187.336px 331.693px;" points="234.969 397.868 139.703 338.237"></polyline>
  <polyline style="fill: rgb(216, 216, 216); stroke: rgb(0, 0, 0); transform-origin: 195.01px 307.494px;" points="198.849 333.955 191.172 348.448"></polyline>
  <polyline style="fill: rgb(216, 216, 216); stroke: rgb(0, 0, 0); transform-origin: 193.489px 356.654px;" points="198.863 386.799 188.114 404.702"></polyline>
  <polyline style="fill: rgb(216, 216, 216); stroke: rgb(0, 0, 0); transform-origin: 98.617px 298.305px;" points="92.846 336.547 104.387 325.462"></polyline>
</svg>